<?xml version="1.0" standalone="no"?>
<!DOCTYPE svg PUBLIC "-//W3C//DTD SVG 20010904//EN"
 "http://www.w3.org/TR/2001/REC-SVG-20010904/DTD/svg10.dtd">
<svg version="1.0" xmlns="http://www.w3.org/2000/svg"
 width="1024.000000pt" height="1024.000000pt" viewBox="0 0 1024.000000 1024.000000"
 preserveAspectRatio="xMidYMid meet">

<g transform="translate(0.000000,1024.000000) scale(0.100000,-0.100000)"
fill="#000000" stroke="none">
<path d="M2445 9280 c-442 -31 -864 -234 -1143 -551 -190 -215 -303 -434 -376
-729 -58 -236 -56 -111 -56 -2887 0 -1764 3 -2574 10 -2633 59 -465 266 -869
581 -1136 282 -239 620 -372 1028 -403 164 -13 4891 -15 4891 -3 0 11 23 10
-395 14 -270 2 -305 3 -142 5 l217 3 0 80 c0 78 0 79 28 82 24 3 27 8 30 43 3
29 -1 43 -15 53 -17 14 -17 14 0 8 15 -5 18 -1 17 22 -5 71 0 92 20 92 11 0
20 5 20 10 0 6 9 10 20 10 13 0 20 7 20 20 0 17 7 20 40 20 33 0 40 3 40 20 0
16 -7 20 -30 20 -23 0 -30 4 -30 20 0 16 7 20 30 20 28 0 30 2 30 40 l0 40 40
0 c33 0 40 3 40 20 0 13 7 20 20 20 13 0 20 7 20 20 0 13 7 20 20 20 15 0 20
7 20 26 0 14 7 32 15 40 13 14 15 11 15 -25 0 -23 5 -41 10 -41 6 0 10 18 10
40 0 28 4 40 14 40 20 0 29 34 21 80 -6 38 -6 40 20 40 15 0 24 -4 20 -10 -3
-5 3 -10 14 -10 12 0 21 5 21 10 0 6 9 10 19 10 13 0 21 8 23 22 2 16 9 22 22
20 11 -2 15 1 11 7 -3 6 0 11 7 11 8 0 20 9 28 20 8 11 22 20 32 20 10 0 18 5
18 10 0 6 9 10 20 10 13 0 20 7 20 20 0 13 7 20 19 20 22 0 26 10 30 70 4 57
11 66 11 13 0 -28 4 -40 14 -40 8 0 15 3 14 6 -2 20 4 31 17 31 9 0 15 9 15
24 0 19 4 23 20 19 15 -4 20 0 20 16 0 12 6 21 15 21 10 0 15 10 15 28 0 15 3
45 7 67 6 36 7 38 14 15 6 -22 7 -23 8 -4 1 16 9 23 31 27 27 6 43 27 20 27
-5 0 -10 9 -10 20 0 11 5 20 10 20 6 0 10 18 10 40 0 22 5 40 10 40 6 0 10 14
10 30 0 23 4 30 20 30 16 0 20 7 20 30 0 27 3 30 30 30 23 0 30 4 30 20 0 11
5 20 10 20 6 0 10 18 10 40 0 22 5 40 11 40 5 0 7 6 3 13 -5 8 -2 8 9 -2 15
-12 17 -11 17 8 0 11 -4 21 -10 21 -5 0 -10 9 -10 20 0 11 5 20 10 20 6 0 10
18 10 40 0 33 3 40 20 40 17 0 20 7 20 40 0 34 3 40 20 40 18 0 20 6 19 57 -2
36 2 58 9 61 7 2 12 17 12 33 0 16 5 29 10 29 6 0 10 11 10 24 0 19 4 23 20
19 17 -5 20 0 20 26 0 17 -4 31 -10 31 -5 0 -10 18 -10 40 0 36 3 40 25 40 26
0 30 14 17 55 -9 25 -32 31 -33 8 0 -15 -2 -15 -9 2 -11 28 2 38 33 26 21 -8
25 -7 20 4 -3 8 -9 15 -13 15 -5 0 -6 10 -2 22 5 21 6 21 14 2 7 -19 8 -19 7
1 -1 11 -1 27 0 35 1 13 3 13 12 0 9 -13 10 -13 6 1 -6 20 26 72 38 62 4 -5 5
-3 1 4 -4 7 4 29 16 50 25 40 48 89 48 101 0 4 -15 -21 -34 -54 -117 -219
-322 -413 -552 -525 -56 -28 -105 -56 -107 -63 -3 -7 -6 -167 -6 -355 -2 -372
-4 -385 -56 -409 -44 -20 -89 -14 -131 17 -60 44 -187 178 -180 189 3 5 0 9
-7 8 -10 -1 -430 397 -570 541 -5 4 -342 10 -750 13 -852 6 -802 1 -1012 105
-132 66 -219 130 -314 231 -171 183 -252 394 -255 664 -1 107 2 130 18 154 10
16 82 94 160 173 156 160 212 232 263 341 59 126 73 203 83 437 5 139 14 230
25 270 70 260 277 473 536 553 36 11 114 28 175 37 141 22 227 47 289 86 54
33 960 930 1025 1014 190 245 241 576 134 874 -45 128 -112 236 -212 342 -132
141 -293 236 -481 287 -130 34 -354 36 -474 4 -167 -45 -335 -143 -464 -271
-45 -45 -85 -81 -88 -81 -3 0 -5 8 -6 18 0 10 -3 12 -6 4 -2 -6 -8 -10 -12 -8
-4 3 -8 -1 -8 -8 0 -8 6 -12 14 -9 23 9 14 -12 -18 -43 -31 -30 -90 -44 -67
-16 9 10 8 16 -3 23 -10 6 -10 9 -1 9 6 0 12 4 12 8 0 7 -14 10 -56 14 -6 1
-9 10 -6 20 3 12 -1 18 -12 18 -11 0 -14 -5 -10 -12 4 -7 3 -8 -4 -4 -7 4 -12
18 -12 32 0 13 -4 24 -10 24 -5 0 -7 -6 -4 -14 3 -8 0 -17 -7 -22 -8 -5 -10
-3 -5 5 10 15 -23 53 -37 44 -6 -3 -7 -1 -3 6 4 6 11 9 16 6 5 -3 8 8 8 25 -1
22 -6 30 -17 29 -54 -5 -61 0 -61 41 0 38 -2 40 -31 40 -16 0 -28 -4 -25 -8 3
-5 -1 -9 -9 -9 -8 0 -12 4 -9 8 2 4 0 10 -5 13 -5 4 -7 22 -4 42 3 19 2 34 -3
33 -5 -1 -24 -1 -41 0 -30 1 -33 4 -33 31 0 17 -5 30 -11 30 -5 0 -7 5 -4 11
4 6 1 10 -6 8 -50 -6 -59 0 -59 41 0 22 -3 39 -7 39 -5 -1 -24 -1 -43 0 -35 1
-36 1 -32 41 2 23 0 40 -4 39 -5 -1 -25 -1 -45 0 -33 1 -36 3 -31 26 3 16 0
25 -8 25 -10 0 -10 3 0 15 11 13 7 15 -29 15 l-41 0 0 121 c0 77 -4 118 -10
114 -14 -9 -12 8 3 24 10 11 10 14 0 18 -7 3 -13 14 -13 26 0 11 -3 17 -7 13
-8 -8 -10 -20 -12 -103 -2 -92 -21 -59 -21 37 0 73 -3 90 -15 90 -17 0 -19 9
-6 29 5 8 16 11 25 8 11 -4 16 -1 16 9 0 12 -7 15 -25 12 -14 -3 -28 -2 -30 3
-7 10 -2112 9 -2260 -1z m2182 -26 c-3 -3 -12 -4 -19 -1 -8 3 -5 6 6 6 11 1
17 -2 13 -5z m36 -7 c7 4 6 -1 -2 -10 -12 -15 -11 -17 3 -17 9 0 16 -4 16 -10
0 -5 -9 -10 -20 -10 -16 0 -20 6 -19 33 0 17 3 26 6 19 2 -6 10 -9 16 -5z m34
-72 c0 -8 -4 -12 -9 -9 -5 3 -6 10 -3 15 9 13 12 11 12 -6z m147 -326 c-7 -12
-44 -12 -44 0 0 5 6 11 13 14 17 6 38 -3 31 -14z m156 -159 c0 -5 -9 -10 -20
-10 -11 0 -20 5 -20 10 0 6 9 10 20 10 11 0 20 -4 20 -10z m0 -24 c0 -2 -6 -9
-14 -15 -11 -9 -16 -9 -22 0 -4 7 -3 9 4 5 6 -3 13 -2 17 4 6 10 15 14 15 6z
m-9 -53 c13 -16 12 -17 -3 -4 -10 7 -18 15 -18 17 0 8 8 3 21 -13z m85 -78
c14 -13 13 -15 -9 -13 -16 1 -23 7 -20 15 7 17 11 16 29 -2z m1455 -301 c199
-58 355 -203 423 -393 52 -143 45 -271 -21 -411 -34 -71 -56 -96 -444 -485
-316 -317 -409 -405 -409 -387 0 14 4 21 11 17 6 -4 13 2 16 14 3 11 10 18 15
15 6 -4 7 2 2 17 -4 13 -6 29 -5 34 1 6 4 34 7 63 5 40 3 52 -7 50 -10 -2 -14
23 -15 112 -3 149 -23 385 -35 417 -12 31 -12 46 0 38 6 -3 9 3 8 14 0 11 -5
17 -9 15 -7 -4 -39 55 -43 76 -4 30 -66 159 -87 184 -17 19 -22 32 -19 49 1 5
-3 6 -9 2 -5 -3 -10 -3 -10 2 0 4 -11 21 -25 37 -13 16 -22 34 -18 40 3 6 3 8
-2 4 -7 -7 -84 70 -85 85 0 14 284 292 331 325 77 52 179 81 285 82 54 0 112
-6 145 -16z m-1064 -26 c-3 -8 -6 -5 -6 6 -1 11 2 17 5 13 3 -3 4 -12 1 -19z
m43 -46 c0 -4 -18 -26 -40 -47 -22 -21 -40 -37 -40 -34 0 25 26 72 44 79 27
11 36 12 36 2z m-335 -16 c95 -17 159 -38 238 -77 374 -189 607 -494 656 -862
15 -111 13 -535 -3 -625 -22 -124 -81 -164 -323 -218 -246 -56 -390 -123 -560
-259 -291 -233 -432 -547 -433 -963 -1 -277 -92 -433 -303 -514 -50 -20 -71
-20 -540 -19 -268 1 -507 -1 -531 -4 -59 -9 -82 -29 -494 -434 -193 -189 -361
-350 -374 -357 -50 -28 -104 -10 -133 46 -13 24 -15 91 -15 405 l0 377 -42 16
c-304 117 -560 390 -662 705 -55 172 -57 210 -54 1072 l4 790 27 95 c120 421
477 747 904 824 116 21 2520 23 2638 2z m922 -1518 c-2 -13 -4 -5 -4 17 -1 22
1 32 4 23 2 -10 2 -28 0 -40z m-2223 -2688 c-60 -61 -109 -114 -109 -118 -3
-35 -35 -73 -35 -40 0 6 -9 3 -20 -7 -18 -17 -19 -20 -6 -34 9 -8 19 -11 23
-7 5 5 2 11 -4 13 -24 9 -13 22 15 18 15 -2 32 -4 38 -4 6 -1 17 -14 24 -31
10 -24 19 -30 41 -30 22 0 29 -5 29 -20 0 -15 7 -20 25 -20 18 0 25 -5 25 -20
0 -14 7 -20 21 -20 12 0 23 -8 26 -20 3 -11 10 -20 15 -20 5 0 6 5 3 10 -3 6
-2 10 4 10 11 0 11 0 96 80 109 101 13 -1 -273 -291 -156 -157 -296 -304 -311
-325 -181 -246 -158 -567 54 -779 113 -113 236 -165 394 -165 87 0 170 20 260
63 58 28 104 69 404 366 185 184 337 330 337 324 0 -6 -4 -13 -9 -15 -5 -1
-39 -36 -75 -76 l-65 -73 35 -50 c19 -27 32 -49 29 -49 -3 0 -1 -9 5 -20 6
-11 15 -18 20 -15 5 3 15 -3 22 -15 7 -11 16 -20 20 -20 4 0 22 -15 39 -32 21
-22 29 -40 26 -55 -2 -12 0 -20 4 -17 5 3 9 12 9 20 0 8 5 14 11 14 6 0 16 6
24 13 7 6 40 38 74 71 33 32 61 55 61 51 0 -15 -616 -627 -680 -676 -158 -121
-342 -182 -550 -182 -225 0 -407 64 -586 208 -168 134 -285 315 -336 521 -30
124 -30 324 0 439 30 109 107 264 179 360 56 74 752 775 769 775 4 0 -41 -50
-102 -110z m386 -94 c0 -2 -8 -10 -17 -17 -16 -13 -17 -12 -4 4 13 16 21 21
21 13z m-50 -49 c0 -2 -15 -16 -32 -33 l-33 -29 29 33 c28 30 36 37 36 29z
m2832 -2787 c-2 -22 -8 -40 -13 -40 -10 0 -12 63 -2 73 14 15 18 5 15 -33z"/>
<path d="M6140 6629 c0 -5 5 -7 10 -4 6 3 10 8 10 11 0 2 -4 4 -10 4 -5 0 -10
-5 -10 -11z"/>
<path d="M3050 7011 c-46 -15 -85 -39 -116 -73 -62 -65 -83 -137 -64 -218 45
-186 268 -250 403 -115 120 119 91 311 -57 387 -43 22 -128 32 -166 19z"/>
<path d="M4605 7011 c-120 -31 -211 -159 -190 -269 38 -204 280 -279 422 -130
108 112 72 306 -70 379 -44 23 -118 32 -162 20z"/>
<path d="M3080 6259 c-54 -22 -100 -92 -100 -152 0 -153 226 -400 464 -506
228 -103 538 -117 791 -37 149 47 321 163 420 283 149 180 163 336 35 401 -98
49 -179 17 -256 -101 -64 -97 -92 -127 -174 -183 -149 -101 -365 -140 -540
-95 -167 42 -301 126 -366 231 -22 34 -48 76 -59 93 -38 61 -145 94 -215 66z"/>
<path d="M3745 3809 c-4 -6 -5 -12 -2 -15 2 -3 7 2 10 11 7 17 1 20 -8 4z"/>
<path d="M4785 9270 c19 -7 245 -2 254 6 2 2 -58 4 -135 3 -82 0 -131 -4 -119
-9z"/>
<path d="M5510 8189 c0 -5 5 -7 10 -4 6 3 10 8 10 11 0 2 -4 4 -10 4 -5 0 -10
-5 -10 -11z"/>
<path d="M6616 6493 c-6 -14 -5 -15 5 -6 7 7 10 15 7 18 -3 3 -9 -2 -12 -12z"/>
<path d="M6591 6444 c0 -11 3 -14 6 -6 3 7 2 16 -1 19 -3 4 -6 -2 -5 -13z"/>
<path d="M6518 6399 c-10 -5 -18 -17 -18 -25 0 -8 -4 -13 -9 -10 -4 3 -16 -3
-26 -14 -18 -20 -17 -20 141 -19 160 2 153 14 -11 20 -38 1 -58 4 -42 6 19 3
27 10 27 24 0 11 -4 18 -9 14 -5 -3 -12 -1 -16 5 -8 12 -15 12 -37 -1z"/>
<path d="M6808 6333 c12 -2 32 -2 45 0 12 2 2 4 -23 4 -25 0 -35 -2 -22 -4z"/>
<path d="M5896 5255 c-57 -20 -87 -45 -121 -100 -52 -84 -36 -204 37 -272 77
-73 222 -70 302 5 63 60 84 167 47 248 -24 53 -91 109 -146 123 -55 14 -71 13
-119 -4z"/>
<path d="M7300 5261 c-94 -30 -151 -95 -166 -189 -18 -115 91 -242 209 -242
91 0 162 43 202 123 40 80 31 161 -26 230 -52 63 -153 100 -219 78z"/>
<path d="M5151 4924 c0 -11 3 -14 6 -6 3 7 2 16 -1 19 -3 4 -6 -2 -5 -13z"/>
<path d="M5090 4760 c0 -5 7 -7 15 -4 8 4 15 8 15 10 0 2 -7 4 -15 4 -8 0 -15
-4 -15 -10z"/>
<path d="M5070 4709 c0 -5 5 -7 10 -4 6 3 10 8 10 11 0 2 -4 4 -10 4 -5 0 -10
-5 -10 -11z"/>
<path d="M5880 4590 c-25 -10 -42 -19 -37 -19 4 -1 -2 -10 -13 -21 -11 -11
-25 -40 -32 -65 -8 -28 -15 -40 -20 -32 -5 7 -8 -1 -9 -20 -1 -18 -2 -39 -3
-45 -4 -26 16 -66 35 -71 10 -3 19 -13 19 -24 0 -10 9 -31 20 -48 14 -22 16
-31 7 -37 -8 -5 -4 -8 9 -8 20 0 40 -24 35 -43 -1 -5 3 -6 8 -3 11 7 24 -20
29 -61 1 -7 7 -13 13 -13 8 0 7 5 -1 15 -7 9 -10 18 -6 22 3 3 6 2 6 -4 0 -6
12 -22 27 -37 16 -16 20 -24 10 -20 -9 3 -17 2 -17 -4 0 -5 10 -9 23 -8 18 1
21 -3 19 -24 -4 -22 -2 -23 14 -10 10 8 15 11 12 5 -3 -5 1 -17 10 -25 14 -13
15 -12 9 3 -5 14 2 12 33 -10 22 -15 40 -33 40 -40 0 -7 6 -10 14 -7 7 3 16
-2 19 -10 4 -10 13 -13 23 -9 13 5 15 3 9 -7 -5 -9 -4 -11 3 -6 7 4 12 2 12
-3 0 -6 3 -10 8 -9 12 4 72 -24 72 -34 0 -5 4 -7 10 -3 5 3 17 1 27 -4 10 -6
65 -22 123 -37 97 -24 116 -26 255 -21 112 3 169 10 225 26 77 22 212 83 242
109 9 7 22 11 29 6 7 -4 10 -3 6 3 -4 6 17 27 46 47 104 68 252 257 282 358
16 54 20 134 8 141 -5 3 -6 -14 -5 -37 14 -168 -191 -420 -443 -546 -125 -63
-229 -90 -370 -97 -197 -9 -371 36 -550 142 -155 92 -264 206 -327 340 -54
117 -49 201 17 265 30 29 43 34 94 38 77 6 124 -20 171 -91 18 -29 49 -76 69
-106 61 -93 185 -178 314 -216 69 -20 205 -22 297 -5 155 29 300 133 383 275
52 90 73 114 122 136 24 11 32 19 21 19 -30 0 -125 -78 -126 -104 0 -19 -93
-146 -133 -183 -100 -92 -204 -132 -367 -140 -89 -4 -130 -2 -180 11 -96 24
-239 103 -222 121 4 5 2 5 -5 2 -15 -9 -106 95 -138 157 -37 74 -77 113 -136
134 -48 16 -86 14 -139 -8z m-89 -244 c-7 -15 -18 27 -12 49 4 17 6 15 11 -10
4 -16 4 -34 1 -39z"/>
<path d="M7462 4564 c10 -10 20 -15 24 -12 3 4 -5 12 -18 18 -22 12 -22 12 -6
-6z"/>
<path d="M4988 4565 c-4 -4 -4 -14 -1 -23 4 -9 2 -13 -4 -9 -6 4 -17 -1 -24
-11 -12 -15 -12 -16 2 -5 9 7 19 10 22 6 8 -7 20 22 15 37 -2 6 -6 8 -10 5z"/>
<path d="M5026 4537 c-5 -9 -6 -26 -3 -37 3 -13 0 -20 -9 -20 -8 0 -14 5 -14
10 0 6 -9 10 -20 10 -11 0 -20 -4 -20 -9 0 -5 -10 -11 -22 -13 -16 -2 -22 -9
-20 -21 2 -13 -2 -17 -15 -15 -12 2 -19 -4 -21 -20 -2 -13 -9 -21 -15 -19 -6
2 -26 -12 -45 -31 -24 -26 -29 -38 -20 -44 9 -5 6 -8 -10 -8 -23 0 -89 -56
-84 -71 1 -5 -3 -8 -9 -7 -7 2 -26 -16 -44 -38 -40 -51 -50 -126 -35 -259 29
-253 116 -442 280 -604 71 -71 195 -162 208 -153 3 2 8 0 11 -5 11 -16 76 -50
158 -81 153 -59 196 -62 938 -60 369 0 625 4 570 8 -55 4 -208 8 -339 8 -131
1 -241 4 -244 7 -5 5 138 9 215 7 26 -1 31 2 27 16 -5 15 -4 15 5 2 8 -13 32
-16 111 -18 61 -1 99 2 95 8 -6 10 33 35 43 26 3 -3 0 -6 -6 -6 -21 0 -13 -26
8 -27 13 -1 20 4 20 17 0 23 -16 28 -103 29 -52 1 -67 -2 -61 -11 6 -10 4 -11
-7 0 -9 8 -49 12 -125 12 -100 0 -113 -2 -118 -18 -4 -11 -16 -18 -31 -18 -22
0 -26 9 -4 12 5 1 14 2 19 3 24 3 7 21 -20 21 -29 0 -38 16 -31 54 1 5 -4 13
-11 17 -10 7 -10 9 0 9 8 0 12 23 12 80 l0 80 -40 0 c-39 0 -40 1 -40 36 0 25
-7 41 -22 55 -13 10 -18 18 -12 19 6 0 12 10 12 23 0 23 -3 24 -87 24 -143 1
-131 -2 -131 44 0 28 -6 46 -17 55 -17 13 -17 14 0 8 12 -4 17 -1 17 11 0 12
-5 15 -17 11 -14 -6 -14 -4 2 14 11 12 15 21 10 20 -6 -2 -43 -2 -82 -1 -71 1
-73 2 -73 26 0 14 -6 25 -12 25 -9 0 -10 2 -2 8 15 9 15 63 0 61 -32 -4 -46 3
-46 21 0 13 -7 20 -20 20 -21 0 -23 7 -20 53 2 28 0 28 -42 25 -24 -2 -48 -7
-53 -10 -6 -4 -9 14 -7 47 3 42 7 52 18 48 8 -3 21 0 29 7 10 9 15 9 15 1 0
-6 5 -11 10 -11 6 0 9 13 8 29 -1 16 -5 28 -8 26 -3 -2 -16 3 -30 11 -14 7
-19 13 -12 14 25 0 11 16 -18 18 -16 1 -30 -2 -30 -7 0 -5 -9 -11 -20 -14 -15
-4 -20 -14 -20 -41 0 -20 -4 -36 -10 -36 -5 0 -10 14 -10 30 0 17 -3 29 -7 29
-28 -4 -33 4 -33 51 l0 50 -80 0 -80 0 -1 48 c-1 26 0 62 1 80 1 31 0 32 -39
32 -33 0 -40 3 -43 23 -3 19 -8 21 -37 19 -18 -2 -31 1 -27 6 3 5 19 8 36 7
44 -3 32 19 -13 23 -34 3 -37 6 -37 33 0 22 -5 29 -20 29 -13 0 -20 7 -20 20
0 13 -7 20 -19 20 -14 0 -21 8 -23 28 -4 22 -6 24 -12 9z m164 -191 c0 -3 -4
-8 -10 -11 -5 -3 -10 -1 -10 4 0 6 5 11 10 11 6 0 10 -2 10 -4z m47 -51 c0 -8
-4 -12 -9 -9 -5 3 -6 10 -3 15 9 13 12 11 12 -6z m-117 -35 c0 -13 -7 -20 -20
-20 -13 0 -20 7 -20 20 0 13 7 20 20 20 13 0 20 -7 20 -20z m117 -45 c0 -8 -4
-12 -9 -9 -5 3 -6 10 -3 15 9 13 12 11 12 -6z m168 -84 c-2 -5 -14 -11 -25
-14 -11 -3 -18 -1 -14 4 3 5 12 9 20 9 9 0 12 5 8 12 -4 7 -3 8 5 4 6 -4 9
-11 6 -15z m-75 -46 c0 -2 -9 -3 -19 -2 -11 0 -18 5 -15 9 4 6 34 0 34 -7z
m234 -26 c-2 -4 2 -10 8 -12 7 -3 1 -6 -14 -6 -19 -1 -26 3 -22 12 3 8 11 14
19 14 8 0 12 -4 9 -8z m-24 -45 c0 -8 -4 -12 -10 -9 -5 3 -10 10 -10 16 0 5 5
9 10 9 6 0 10 -7 10 -16z m55 -2 c-3 -3 -11 0 -18 7 -9 10 -8 11 6 5 10 -3 15
-9 12 -12z m-130 -2 c-3 -5 -11 -10 -16 -10 -6 0 -7 5 -4 10 3 6 11 10 16 10
6 0 7 -4 4 -10z m85 -30 c0 -5 -5 -10 -11 -10 -5 0 -7 5 -4 10 3 6 8 10 11 10
2 0 4 -4 4 -10z m-96 -36 c3 -8 2 -12 -4 -9 -6 3 -10 10 -10 16 0 14 7 11 14
-7z m50 -56 c-3 -4 -12 -8 -20 -8 -8 0 -12 -4 -9 -10 4 -6 -1 -7 -11 -3 -11 4
-13 8 -6 11 7 2 10 7 8 11 -3 4 6 7 19 7 13 0 21 -4 19 -8z m286 -238 c0 -11
-4 -20 -9 -20 -5 0 -7 9 -4 20 3 11 7 20 9 20 2 0 4 -9 4 -20z m90 -1 c0 -6
-4 -7 -10 -4 -5 3 -10 1 -10 -6 0 -7 -2 -10 -5 -7 -9 8 6 38 16 32 5 -3 9 -10
9 -15z m-64 -31 c4 -7 4 -10 0 -6 -5 4 -19 3 -32 -2 -13 -5 -24 -7 -24 -4 0 3
25 16 47 23 1 1 5 -5 9 -11z m67 -5 c3 -5 -6 -8 -19 -8 -13 0 -24 3 -24 8 0 4
9 7 19 7 11 0 22 -3 24 -7z m-73 -28 c0 -8 -6 -14 -12 -12 -7 1 -11 -5 -10
-13 2 -8 0 -11 -4 -7 -11 11 -14 38 -4 32 5 -3 11 -1 15 5 9 14 15 12 15 -5z
m100 -5 c0 -5 -2 -10 -4 -10 -3 0 -8 5 -11 10 -3 6 -1 10 4 10 6 0 11 -4 11
-10z m72 -102 c-2 -10 -6 -18 -7 -18 -1 0 -5 8 -7 18 -3 11 0 19 7 19 7 0 10
-8 7 -19z m113 -36 c-3 -3 -11 0 -18 7 -9 10 -8 11 6 5 10 -3 15 -9 12 -12z
m-42 -32 c3 -11 3 -20 1 -20 -2 0 -8 9 -14 20 -6 11 -7 20 -2 20 6 0 12 -9 15
-20z m-113 -40 c0 -5 -5 -10 -11 -10 -5 0 -7 5 -4 10 3 6 8 10 11 10 2 0 4 -4
4 -10z m173 -4 c9 5 9 4 0 -6 -6 -7 -9 -19 -6 -26 3 -8 1 -14 -4 -14 -17 0
-23 13 -12 27 9 10 7 13 -7 13 -16 0 -17 2 -4 10 10 6 16 6 18 0 2 -6 9 -7 15
-4z m29 -30 c7 4 8 2 4 -5 -9 -13 -26 -5 -25 12 0 9 2 8 6 -1 2 -6 10 -9 15
-6z m58 10 c0 -11 -19 -15 -25 -6 -3 5 1 10 9 10 9 0 16 -2 16 -4z m27 -41 c0
-8 -4 -12 -9 -9 -5 3 -6 10 -3 15 9 13 12 11 12 -6z m-79 -20 c-3 -3 -9 2 -12
12 -6 14 -5 15 5 6 7 -7 10 -15 7 -18z m51 -18 c8 -10 7 -14 -2 -14 -8 0 -14
6 -14 14 0 7 1 13 2 13 2 0 8 -6 14 -13z m14 -76 c3 -15 1 -18 -11 -14 -10 4
-13 2 -8 -5 4 -7 1 -12 -7 -12 -7 0 -14 7 -14 15 0 8 6 15 14 15 7 0 13 5 13
10 0 17 7 11 13 -9z m-103 -25 c0 -3 -4 -8 -10 -11 -5 -3 -10 -1 -10 4 0 6 5
11 10 11 6 0 10 -2 10 -4z m255 -85 c-6 -5 -25 10 -25 20 0 5 6 4 14 -3 8 -7
12 -15 11 -17z m235 23 c0 -8 -19 -13 -24 -6 -3 5 1 9 9 9 8 0 15 -2 15 -3z
m-457 -41 c-13 -2 -33 -2 -45 0 -13 2 -3 4 22 4 25 0 35 -2 23 -4z"/>
<path d="M7502 4520 c7 -10 14 -18 15 -16 6 6 -9 36 -18 36 -5 0 -4 -9 3 -20z"/>
<path d="M8653 4030 c0 -25 2 -35 4 -22 2 12 2 32 0 45 -2 12 -4 2 -4 -23z"/>
<path d="M5720 3970 c0 -23 4 -30 20 -30 16 0 20 7 20 30 0 23 -4 30 -20 30
-16 0 -20 -7 -20 -30z"/>
<path d="M8642 3900 c0 -14 2 -19 5 -12 2 6 2 18 0 25 -3 6 -5 1 -5 -13z"/>
<path d="M8632 3850 c0 -14 2 -19 5 -12 2 6 2 18 0 25 -3 6 -5 1 -5 -13z"/>
<path d="M8606 3757 c-10 -28 -20 -59 -23 -67 -3 -8 1 -6 9 5 15 22 42 104 35
111 -2 2 -11 -20 -21 -49z"/>
<path d="M6848 3073 c6 -2 18 -2 25 0 6 3 1 5 -13 5 -14 0 -19 -2 -12 -5z"/>
<path d="M7862 2965 c0 -16 2 -22 5 -12 2 9 2 23 0 30 -3 6 -5 -1 -5 -18z"/>
<path d="M7861 2904 c0 -11 3 -14 6 -6 3 7 2 16 -1 19 -3 4 -6 -2 -5 -13z"/>
<path d="M7864 2640 c0 -135 2 -190 3 -122 2 67 2 177 0 245 -1 67 -3 12 -3
-123z"/>
<path d="M7141 2838 c2 -2 17 -14 34 -28 22 -19 26 -20 15 -5 -18 24 -32 35
-44 35 -5 0 -7 -1 -5 -2z"/>
<path d="M7250 2735 c13 -14 26 -25 28 -25 3 0 -5 11 -18 25 -13 14 -26 25
-28 25 -3 0 5 -11 18 -25z"/>
<path d="M7305 2691 c-9 -16 9 -20 23 -5 10 12 10 14 -2 14 -8 0 -17 -4 -21
-9z"/>
<path d="M7357 2651 c-3 -13 -1 -18 9 -14 7 2 10 11 7 19 -7 19 -10 18 -16 -5z"/>
<path d="M7397 2615 c-4 -8 -2 -17 3 -20 6 -4 10 3 10 14 0 25 -6 27 -13 6z"/>
<path d="M7425 2561 c-3 -5 -1 -12 5 -16 5 -3 10 1 10 9 0 18 -6 21 -15 7z"/>
<path d="M7390 941 c0 -7 38 -10 106 -10 58 0 104 2 102 5 -11 10 -208 15
-208 5z"/>
</g>
</svg>
